<svg width="222" height="73" viewBox="0 0 222 73" fill="none" xmlns="http://www.w3.org/2000/svg">
<path d="M12.0004 24.3791C11.9704 19.9989 13.5247 15.7625 16.3633 12.4876C17.62 10.9402 19.1934 9.69507 20.9721 8.84057C22.7508 7.98608 24.6912 7.54313 26.6556 7.54313C28.6201 7.54313 30.5604 7.98608 32.3391 8.84057C34.1178 9.69507 35.6913 10.9402 36.9479 12.4876C39.7941 15.775 41.3415 20.0321 41.2876 24.4267V40.5358H39.0288V24.4267C39.0682 20.7096 37.7587 17.1101 35.3544 14.3268C34.29 13.0227 32.9594 11.9738 31.4564 11.254C29.9534 10.5343 28.3146 10.1613 26.6556 10.1613C24.9967 10.1613 23.3579 10.5343 21.8549 11.254C20.3519 11.9738 19.0213 13.0227 17.9569 14.3268C15.5549 17.0944 14.2377 20.6753 14.2592 24.3791V40.5358H12.0004V24.3791Z" fill="#1F263C"/>
<path d="M38.3594 7.53271H41.1597L55.1999 34.8199L69.1705 7.53271H72.1023L56.7857 37.4122L55.2386 40.4406L53.6992 37.5232L38.3594 7.53271Z" fill="#6BCAD2"/>
<path d="M76.4849 40.4644H74.1642V7.53277H76.4849V40.4644Z" fill="#6BCAD2"/>
<path d="M115.43 40.4644H113.109V7.53271H115.43V40.4644Z" fill="#6BCAD2"/>
<path d="M134.393 7.02553C136.565 6.99246 138.72 7.41574 140.727 8.26927C142.733 9.1228 144.547 10.3885 146.058 11.9883C147.619 13.5365 148.853 15.3962 149.684 17.4524C150.516 19.5086 150.927 21.7177 150.893 23.9432C150.927 26.1687 150.515 28.3777 149.684 30.4338C148.852 32.49 147.618 34.3497 146.058 35.8982C144.527 37.4688 142.708 38.7146 140.706 39.5647C138.705 40.4147 136.559 40.8522 134.393 40.8522C132.226 40.8522 130.081 40.4147 128.079 39.5647C126.078 38.7146 124.259 37.4688 122.727 35.8982C121.167 34.3497 119.934 32.49 119.102 30.4338C118.27 28.3777 117.859 26.1687 117.893 23.9432C117.858 21.7177 118.27 19.5086 119.101 17.4524C119.933 15.3962 121.167 13.5365 122.727 11.9883C124.238 10.3881 126.052 9.12217 128.058 8.26862C130.065 7.41506 132.221 6.99199 134.393 7.02553ZM134.393 38.4668C136.263 38.4993 138.119 38.1399 139.848 37.4105C141.578 36.6812 143.143 35.5973 144.449 34.2255C145.788 32.8873 146.845 31.2828 147.557 29.5105C148.269 27.7383 148.619 25.8356 148.588 23.9195C148.62 22.0031 148.27 20.1003 147.558 18.3279C146.847 16.5555 145.788 14.9511 144.449 13.6135C141.785 10.8918 138.177 9.36347 134.416 9.36347C130.655 9.36347 127.047 10.8918 124.383 13.6135C123.043 14.9511 121.985 16.5555 121.274 18.3279C120.562 20.1003 120.212 22.0031 120.244 23.9195C120.212 25.8356 120.563 27.7383 121.275 29.5105C121.987 31.2828 123.044 32.8873 124.383 34.2255C125.684 35.5893 127.243 36.6674 128.964 37.3938C130.684 38.1203 132.532 38.48 134.393 38.4509V38.4668Z" fill="#6BCAD2"/>
<path d="M153.36 24.3792C153.323 19.9975 154.878 15.7585 157.723 12.4876C158.979 10.9403 160.552 9.69532 162.33 8.84086C164.108 7.9864 166.048 7.54346 168.011 7.54346C169.975 7.54346 171.915 7.9864 173.693 8.84086C175.471 9.69532 177.044 10.9403 178.3 12.4876C181.151 15.7722 182.702 20.0306 182.647 24.4267V40.5358H180.381V24.4267C180.423 20.7106 179.116 17.1109 176.714 14.3268C175.65 13.0227 174.319 11.9738 172.816 11.2541C171.313 10.5343 169.674 10.1613 168.015 10.1613C166.356 10.1613 164.717 10.5343 163.214 11.2541C161.711 11.9738 160.381 13.0227 159.316 14.3268C156.909 17.1005 155.592 20.6909 155.619 24.4029V40.5358H153.36V24.3792Z" fill="#6BCAD2"/>
<path d="M185.524 7.53271H187.791V23.6894C187.76 27.3992 189.072 30.989 191.473 33.7655C192.537 35.0696 193.868 36.1185 195.371 36.8382C196.874 37.558 198.513 37.931 200.172 37.931C201.831 37.931 203.47 37.558 204.973 36.8382C206.476 36.1185 207.806 35.0696 208.871 33.7655C211.275 30.9821 212.584 27.3826 212.545 23.6656V7.53271H214.804V23.6418C214.852 28.0211 213.305 32.2613 210.464 35.5333C209.209 37.0818 207.636 38.328 205.858 39.1833C204.08 40.0386 202.14 40.482 200.176 40.482C198.211 40.482 196.271 40.0386 194.493 39.1833C192.715 38.328 191.142 37.0818 189.887 35.5333C187.042 32.262 185.484 28.0239 185.517 23.6418L185.524 7.53271Z" fill="#1F263C"/>
<path d="M70.2734 49.2087C73.4113 48.5367 76.306 46.9862 78.6357 44.7295C83.3235 40.4089 85.884 34.257 88.5219 28.1844C94.1147 15.4129 102.021 3.56891 115.411 0.540529C118.622 -0.198456 121.955 -0.179479 125.158 0.596023C118.675 -0.0699036 112.348 2.18156 107.211 5.86001C95.1204 14.5805 90.6724 30.1029 85.8221 37.9434C84.1205 40.8765 81.9105 43.4664 79.3009 45.5857C76.7248 47.7122 73.5736 48.9769 70.2734 49.2087Z" fill="url(#paint0_linear_774_11962)"/>
<path d="M219.513 5.94733H218.654V8.32564H218.476V5.94733H217.618V5.74121H219.513V5.94733Z" fill="#1F263C"/>
<path d="M222.001 5.74108V8.32551H221.808V6.54178L220.864 8.32551L219.913 6.56556V8.32551H219.719V5.73315L220.864 7.84985L222.001 5.74108Z" fill="#1F263C"/>
<path d="M0 56.1116C8.0617 51.9807 17.4676 49.7289 27.1724 49.6067C46.2342 48.9915 64.6696 55.0078 83.101 60.7617C121.96 72.7875 163.751 79.3847 198.493 62.0261C206.851 57.8848 213.864 52.2696 219 45.605C206.692 57.58 188.539 64.4087 169.886 66.8512C125.849 72.4973 83.5919 53.9453 56.7383 48.936C46.9314 46.8731 36.7748 46.2366 26.7684 47.0579C16.8175 47.8112 7.47367 50.9715 0 56.1116Z" fill="url(#paint1_linear_774_11962)"/>
<path d="M14.94 65.605V58.513H12.168V57.661H18.612V58.513H15.84V65.605H14.94Z" fill="#1F263C"/>
<path d="M19.3972 65.605V57.661H20.2972V61.189H24.9172V57.661H25.8172V65.605H24.9172V62.065H20.2972V65.605H19.3972Z" fill="#1F263C"/>
<path d="M27.4043 65.605V57.661H33.2483V58.525H28.3043V61.189H32.7203V62.065H28.3043V64.741H33.2483V65.605H27.4043Z" fill="#1F263C"/>
<path d="M37.972 65.605V57.661H38.872V61.189H43.492V57.661H44.392V65.605H43.492V62.065H38.872V65.605H37.972Z" fill="#3BA3AC"/>
<path d="M45.9792 65.605V57.661H51.8232V58.525H46.8792V61.189H51.2952V62.065H46.8792V64.741H51.8232V65.605H45.9792Z" fill="#3BA3AC"/>
<path d="M51.984 65.605L55.356 57.661H56.484L59.856 65.605H58.86L57.888 63.301H53.952L52.98 65.605H51.984ZM54.3 62.473H57.54L55.92 58.597L54.3 62.473Z" fill="#3BA3AC"/>
<path d="M60.5053 65.605V57.661H61.4053V64.741H65.7373V65.605H60.5053Z" fill="#3BA3AC"/>
<path d="M67.2227 65.605V58.513H64.4507V57.661H70.8947V58.513H68.1227V65.605H67.2227Z" fill="#3BA3AC"/>
<path d="M71.6798 65.605V57.661H72.5798V61.189H77.1998V57.661H78.0998V65.605H77.1998V62.065H72.5798V65.605H71.6798Z" fill="#3BA3AC"/>
<path d="M83.036 65.605L86.408 57.661H87.536L90.908 65.605H89.912L88.94 63.301H85.004L84.032 65.605H83.036ZM85.352 62.473H88.592L86.972 58.597L85.352 62.473Z" fill="#1F263C"/>
<path d="M91.5573 65.605V57.661H92.6013L97.5093 64.345V57.661H98.4093V65.605H97.3653L92.4573 58.897V65.605H91.5573Z" fill="#1F263C"/>
<path d="M99.9981 65.605V57.661H103.346C103.818 57.661 104.27 57.753 104.702 57.937C105.142 58.113 105.534 58.373 105.878 58.717C106.222 59.061 106.494 59.477 106.694 59.965C106.894 60.453 106.994 61.009 106.994 61.633C106.994 62.257 106.894 62.813 106.694 63.301C106.494 63.789 106.222 64.205 105.878 64.549C105.534 64.893 105.142 65.157 104.702 65.341C104.27 65.517 103.818 65.605 103.346 65.605H99.9981ZM100.898 64.753H103.31C103.878 64.753 104.37 64.609 104.786 64.321C105.202 64.033 105.522 63.653 105.746 63.181C105.978 62.709 106.094 62.193 106.094 61.633C106.094 61.065 105.978 60.545 105.746 60.073C105.522 59.601 105.202 59.225 104.786 58.945C104.37 58.657 103.878 58.513 103.31 58.513H100.898V64.753Z" fill="#1F263C"/>
<path d="M113.58 65.605L111.108 57.661H112.056L114.096 64.333L116.232 57.661H117.264L119.4 64.333L121.44 57.661H122.388L119.916 65.605H118.896L116.748 58.933L114.6 65.605H113.58Z" fill="#3BA3AC"/>
<path d="M123.108 65.605V57.661H128.952V58.525H124.008V61.189H128.424V62.065H124.008V64.741H128.952V65.605H123.108Z" fill="#3BA3AC"/>
<path d="M129.113 65.605L132.485 57.661H133.613L136.985 65.605H135.989L135.017 63.301H131.081L130.109 65.605H129.113ZM131.429 62.473H134.669L133.049 58.597L131.429 62.473Z" fill="#3BA3AC"/>
<path d="M137.634 65.605V57.661H138.534V64.741H142.866V65.605H137.634Z" fill="#3BA3AC"/>
<path d="M144.352 65.605V58.513H141.58V57.661H148.024V58.513H145.252V65.605H144.352Z" fill="#3BA3AC"/>
<path d="M148.809 65.605V57.661H149.709V61.189H154.329V57.661H155.229V65.605H154.329V62.065H149.709V65.605H148.809Z" fill="#3BA3AC"/>
<path d="M164.308 65.701C163.516 65.701 162.832 65.521 162.256 65.161C161.68 64.793 161.236 64.301 160.924 63.685C160.62 63.069 160.468 62.385 160.468 61.633C160.468 60.881 160.62 60.197 160.924 59.581C161.236 58.965 161.68 58.477 162.256 58.117C162.832 57.749 163.516 57.565 164.308 57.565C164.908 57.565 165.448 57.673 165.928 57.889C166.408 58.097 166.816 58.385 167.152 58.753C167.488 59.121 167.74 59.549 167.908 60.037H166.96C166.76 59.549 166.444 59.161 166.012 58.873C165.58 58.585 165.036 58.441 164.38 58.441C163.74 58.441 163.192 58.585 162.736 58.873C162.288 59.153 161.948 59.533 161.716 60.013C161.484 60.493 161.368 61.033 161.368 61.633C161.368 62.225 161.484 62.765 161.716 63.253C161.948 63.733 162.288 64.117 162.736 64.405C163.192 64.685 163.74 64.825 164.38 64.825C165.036 64.825 165.58 64.681 166.012 64.393C166.444 64.105 166.76 63.717 166.96 63.229H167.908C167.74 63.709 167.488 64.137 167.152 64.513C166.816 64.881 166.408 65.173 165.928 65.389C165.448 65.597 164.908 65.701 164.308 65.701Z" fill="#1F263C"/>
<path d="M172.425 65.701C171.825 65.701 171.277 65.597 170.781 65.389C170.285 65.181 169.857 64.889 169.497 64.513C169.145 64.137 168.873 63.705 168.681 63.217C168.489 62.721 168.393 62.193 168.393 61.633C168.393 61.065 168.489 60.537 168.681 60.049C168.873 59.561 169.145 59.129 169.497 58.753C169.857 58.377 170.285 58.085 170.781 57.877C171.277 57.669 171.825 57.565 172.425 57.565C173.025 57.565 173.573 57.669 174.069 57.877C174.565 58.085 174.989 58.377 175.341 58.753C175.701 59.129 175.977 59.561 176.169 60.049C176.361 60.537 176.457 61.065 176.457 61.633C176.457 62.193 176.361 62.721 176.169 63.217C175.977 63.705 175.701 64.137 175.341 64.513C174.989 64.889 174.565 65.181 174.069 65.389C173.573 65.597 173.025 65.701 172.425 65.701ZM172.425 64.825C173.073 64.825 173.629 64.685 174.093 64.405C174.565 64.117 174.925 63.733 175.173 63.253C175.429 62.765 175.557 62.225 175.557 61.633C175.557 61.033 175.429 60.493 175.173 60.013C174.925 59.533 174.565 59.153 174.093 58.873C173.629 58.585 173.073 58.441 172.425 58.441C171.785 58.441 171.229 58.585 170.757 58.873C170.285 59.153 169.921 59.533 169.665 60.013C169.417 60.493 169.293 61.033 169.293 61.633C169.293 62.225 169.417 62.765 169.665 63.253C169.921 63.733 170.285 64.117 170.757 64.405C171.229 64.685 171.785 64.825 172.425 64.825Z" fill="#1F263C"/>
<path d="M177.537 65.605V57.661H178.581L181.425 61.429L184.221 57.661H185.265V65.605H184.365V59.029L181.425 62.809L178.437 59.029V65.605H177.537Z" fill="#1F263C"/>
<path d="M186.845 65.605V57.661H190.421C191.269 57.661 191.937 57.893 192.425 58.357C192.913 58.813 193.157 59.433 193.157 60.217C193.157 61.001 192.913 61.625 192.425 62.089C191.937 62.545 191.269 62.773 190.421 62.773H187.745V65.605H186.845ZM187.745 61.933H190.361C190.985 61.933 191.457 61.781 191.777 61.477C192.097 61.173 192.257 60.753 192.257 60.217C192.257 59.689 192.097 59.273 191.777 58.969C191.457 58.665 190.985 58.513 190.361 58.513H187.745V61.933Z" fill="#1F263C"/>
<path d="M192.662 65.605L196.034 57.661H197.162L200.534 65.605H199.538L198.566 63.301H194.63L193.658 65.605H192.662ZM194.978 62.473H198.218L196.598 58.597L194.978 62.473Z" fill="#1F263C"/>
<path d="M201.184 65.605V57.661H202.228L207.136 64.345V57.661H208.036V65.605H206.992L202.084 58.897V65.605H201.184Z" fill="#1F263C"/>
<path d="M212.025 65.605V62.461L208.689 57.661H209.781L212.469 61.525L215.156 57.661H216.249L212.924 62.461V65.605H212.025Z" fill="#1F263C"/>
<defs>
<linearGradient id="paint0_linear_774_11962" x1="110.985" y1="0.00213299" x2="110.985" y2="72.605" gradientUnits="userSpaceOnUse">
<stop stop-color="#6D6F70"/>
<stop offset="0.07" stop-color="#787A7B"/>
<stop offset="0.18" stop-color="#979899"/>
<stop offset="0.34" stop-color="#C8C8C9"/>
<stop offset="0.49" stop-color="white"/>
<stop offset="0.58" stop-color="#EBEBEC"/>
<stop offset="0.76" stop-color="#B8B9B9"/>
<stop offset="1" stop-color="#6D6F70"/>
</linearGradient>
<linearGradient id="paint1_linear_774_11962" x1="200.179" y1="-1.19955e-05" x2="103.482" y2="142.718" gradientUnits="userSpaceOnUse">
<stop stop-color="#9A9C9F"/>
<stop offset="0.432292" stop-color="#E6E6E8"/>
<stop offset="1" stop-color="#9A9C9F"/>
</linearGradient>
</defs>
</svg>
